{"asset":{"version":"2.0","generator":"Blockbench 5.0.4 glTF exporter"},"scenes":[{"nodes":[0,1,2,3,4,5,6],"name":"blockbench_export"}],"scene":0,"nodes":[{"translation":[0,-0.125,0.3125],"name":"bed","mesh":0},{"translation":[0.375,-0.125,-0.375],"name":"front_left","mesh":1},{"translation":[-0.375,-0.125,-0.375],"name":"front_right","mesh":2},{"translation":[-0.375,0,1],"name":"back_right","mesh":3},{"translation":[0.375,0,1],"name":"back_left","mesh":4},{"translation":[0,0,0.1875],"name":"blanket","mesh":5},{"rotation":[-0.13052619222005157,0,0,0.9914448613738104],"translation":[0,0.0625,0.875],"name":"pillow","mesh":6}],"bufferViews":[{"buffer":0,"byteOffset":0,"byteLength":288,"target":34962,"byteStride":12},{"buffer":0,"byteOffset":288,"byteLength":288,"target":34962,"byteStride":12},{"buffer":0,"byteOffset":576,"byteLength":192,"target":34962,"byteStride":8},{"buffer":0,"byteOffset":768,"byteLength":72,"target":34963},{"buffer":0,"byteOffset":840,"byteLength":1824,"target":34962,"byteStride":12},{"buffer":0,"byteOffset":2664,"byteLength":1824,"target":34962,"byteStride":12},{"buffer":0,"byteOffset":4488,"byteLength":1216,"target":34962,"byteStride":8},{"buffer":0,"byteOffset":5704,"byteLength":456,"target":34963},{"buffer":0,"byteOffset":6160,"byteLength":1824,"target":34962,"byteStride":12},{"buffer":0,"byteOffset":7984,"byteLength":1824,"target":34962,"byteStride":12},{"buffer":0,"byteOffset":9808,"byteLength":1216,"target":34962,"byteStride":8},{"buffer":0,"byteOffset":11024,"byteLength":456,"target":34963},{"buffer":0,"byteOffset":11480,"byteLength":1824,"target":34962,"byteStride":12},{"buffer":0,"byteOffset":13304,"byteLength":1824,"target":34962,"byteStride":12},{"buffer":0,"byteOffset":15128,"byteLength":1216,"target":34962,"byteStride":8},{"buffer":0,"byteOffset":16344,"byteLength":456,"target":34963},{"buffer":0,"byteOffset":16800,"byteLength":1824,"target":34962,"byteStride":12},{"buffer":0,"byteOffset":18624,"byteLength":1824,"target":34962,"byteStride":12},{"buffer":0,"byteOffset":20448,"byteLength":1216,"target":34962,"byteStride":8},{"buffer":0,"byteOffset":21664,"byteLength":456,"target":34963},{"buffer":0,"byteOffset":22120,"byteLength":1968,"target":34962,"byteStride":12},{"buffer":0,"byteOffset":24088,"byteLength":1968,"target":34962,"byteStride":12},{"buffer":0,"byteOffset":26056,"byteLength":1312,"target":34962,"byteStride":8},{"buffer":0,"byteOffset":27368,"byteLength":480,"target":34963},{"buffer":0,"byteOffset":27848,"byteLength":288,"target":34962,"byteStride":12},{"buffer":0,"byteOffset":28136,"byteLength":288,"target":34962,"byteStride":12},{"buffer":0,"byteOffset":28424,"byteLength":192,"target":34962,"byteStride":8},{"buffer":0,"byteOffset":28616,"byteLength":72,"target":34963}],"buffers":[{"byteLength":28688,"uri":"data:application/octet-stream;base64,"}],"accessors":[{"bufferView":0,"componentType":5126,"count":24,"max":[0.375,0.375,0.625],"min":[-0.375,0.1875,-0.625],"type":"VEC3"},{"bufferView":1,"componentType":5126,"count":24,"max":[1,1,1],"min":[-1,-1,-1],"type":"VEC3"},{"bufferView":2,"componentType":5126,"count":24,"max":[0.640625,0.4375],"min":[0,0],"type":"VEC2"},{"bufferView":3,"componentType":5123,"count":36,"max":[23],"min":[0],"type":"SCALAR"},{"bufferView":4,"componentType":5126,"count":152,"max":[0.07133883237838745,0.5697168707847595,0.07133883237838745],"min":[-0.375,0.125,-0.07133883237838745],"type":"VEC3"},{"bufferView":5,"componentType":5126,"count":152,"max":[1,1,1],"min":[-1,-1,-1],"type":"VEC3"},{"bufferView":6,"componentType":5126,"count":152,"max":[0.5625,0.53125],"min":[0,0],"type":"VEC2"},{"bufferView":7,"componentType":5123,"count":228,"max":[151],"min":[0],"type":"SCALAR"},{"bufferView":8,"componentType":5126,"count":152,"max":[0.375,0.5697168707847595,0.07133883237838745],"min":[-0.07133883237838745,0.125,-0.07133883237838745],"type":"VEC3"},{"bufferView":9,"componentType":5126,"count":152,"max":[1,1,1],"min":[-1,-1,-1],"type":"VEC3"},{"bufferView":10,"componentType":5126,"count":152,"max":[0.5625,0.53125],"min":[0,0],"type":"VEC2"},{"bufferView":11,"componentType":5123,"count":228,"max":[151],"min":[0],"type":"SCALAR"},{"bufferView":12,"componentType":5126,"count":152,"max":[0.375,0.6322168707847595,0.07133883237838745],"min":[-0.07133883237838745,0,-0.07133883237838745],"type":"VEC3"},{"bufferView":13,"componentType":5126,"count":152,"max":[1,1,1],"min":[-1,-1,-1],"type":"VEC3"},{"bufferView":14,"componentType":5126,"count":152,"max":[0.59375,0.625],"min":[0,0],"type":"VEC2"},{"bufferView":15,"componentType":5123,"count":228,"max":[151],"min":[0],"type":"SCALAR"},{"bufferView":16,"componentType":5126,"count":152,"max":[0.07133883237838745,0.6322168707847595,0.07133883237838745],"min":[-0.375,0,-0.07133883237838745],"type":"VEC3"},{"bufferView":17,"componentType":5126,"count":152,"max":[1,1,1],"min":[-1,-1,-1],"type":"VEC3"},{"bufferView":18,"componentType":5126,"count":152,"max":[0.59375,0.59375],"min":[0,0],"type":"VEC2"},{"bufferView":19,"componentType":5123,"count":228,"max":[151],"min":[0],"type":"SCALAR"},{"bufferView":20,"componentType":5126,"count":164,"max":[0.46875,0.30970728397369385,0.5],"min":[-0.46875,0.03125,-0.5],"type":"VEC3"},{"bufferView":21,"componentType":5126,"count":164,"max":[1,1,1],"min":[-1,-1,-1],"type":"VEC3"},{"bufferView":22,"componentType":5126,"count":164,"max":[0.671875,0.671875],"min":[0,0],"type":"VEC2"},{"bufferView":23,"componentType":5123,"count":240,"max":[163],"min":[0],"type":"SCALAR"},{"bufferView":24,"componentType":5126,"count":24,"max":[0.25,0.296875,0.125],"min":[-0.25,0.203125,-0.125],"type":"VEC3"},{"bufferView":25,"componentType":5126,"count":24,"max":[1,1,1],"min":[-1,-1,-1],"type":"VEC3"},{"bufferView":26,"componentType":5126,"count":24,"max":[0.53125,0.34375],"min":[0,0],"type":"VEC2"},{"bufferView":27,"componentType":5123,"count":36,"max":[23],"min":[0],"type":"SCALAR"}],"materials":[{"pbrMetallicRoughness":{"metallicFactor":0,"roughnessFactor":1,"baseColorTexture":{"index":0}},"alphaMode":"MASK","alphaCutoff":0.05,"doubleSided":true},{"pbrMetallicRoughness":{"metallicFactor":0,"roughnessFactor":1,"baseColorTexture":{"index":1}},"alphaMode":"MASK","alphaCutoff":0.05,"doubleSided":true},{"pbrMetallicRoughness":{"metallicFactor":0,"roughnessFactor":1,"baseColorTexture":{"index":2}},"alphaMode":"MASK","alphaCutoff":0.05,"doubleSided":true},{"pbrMetallicRoughness":{"metallicFactor":0,"roughnessFactor":1,"baseColorTexture":{"index":3}},"alphaMode":"MASK","alphaCutoff":0.05,"doubleSided":true},{"pbrMetallicRoughness":{"metallicFactor":0,"roughnessFactor":1,"baseColorTexture":{"index":4}},"alphaMode":"MASK","alphaCutoff":0.05,"doubleSided":true},{"pbrMetallicRoughness":{"metallicFactor":0,"roughnessFactor":1,"baseColorTexture":{"index":5}},"alphaMode":"MASK","alphaCutoff":0.05,"doubleSided":true},{"pbrMetallicRoughness":{"metallicFactor":0,"roughnessFactor":1,"baseColorTexture":{"index":6}},"alphaMode":"MASK","alphaCutoff":0.05,"doubleSided":true}],"textures":[{"sampler":0,"source":0,"name":"texture"},{"sampler":1,"source":1,"name":"texture"},{"sampler":2,"source":2,"name":"texture"},{"sampler":3,"source":3,"name":"texture"},{"sampler":4,"source":4,"name":"texture"},{"sampler":5,"source":5,"name":"texture"},{"sampler":6,"source":6,"name":"texture"}],"samplers":[{"magFilter":9728,"minFilter":9728,"wrapS":33071,"wrapT":33071},{"magFilter":9728,"minFilter":9728,"wrapS":33071,"wrapT":33071},{"magFilter":9728,"minFilter":9728,"wrapS":33071,"wrapT":33071},{"magFilter":9728,"minFilter":9728,"wrapS":33071,"wrapT":33071},{"magFilter":9728,"minFilter":9728,"wrapS":33071,"wrapT":33071},{"magFilter":9728,"minFilter":9728,"wrapS":33071,"wrapT":33071},{"magFilter":9728,"minFilter":9728,"wrapS":33071,"wrapT":33071}],"images":[{"mimeType":"image/png","uri":"data:image/png;base64,"},{"mimeType":"image/png","uri":"data:image/png;base64,"},{"mimeType":"image/png","uri":"data:image/png;base64,"},{"mimeType":"image/png","uri":"data:image/png;base64,"},{"mimeType":"image/png","uri":"data:image/png;base64,"},{"mimeType":"image/png","uri":"data:image/png;base64,"},{"mimeType":"image/png","uri":"data:image/png;base64,"}],"meshes":[{"primitives":[{"mode":4,"attributes":{"POSITION":0,"NORMAL":1,"TEXCOORD_0":2},"indices":3,"material":0}]},{"primitives":[{"mode":4,"attributes":{"POSITION":4,"NORMAL":5,"TEXCOORD_0":6},"indices":7,"material":1}]},{"primitives":[{"mode":4,"attributes":{"POSITION":8,"NORMAL":9,"TEXCOORD_0":10},"indices":11,"material":2}]},{"primitives":[{"mode":4,"attributes":{"POSITION":12,"NORMAL":13,"TEXCOORD_0":14},"indices":15,"material":3}]},{"primitives":[{"mode":4,"attributes":{"POSITION":16,"NORMAL":17,"TEXCOORD_0":18},"indices":19,"material":4}]},{"primitives":[{"mode":4,"attributes":{"POSITION":20,"NORMAL":21,"TEXCOORD_0":22},"indices":23,"material":5}]},{"primitives":[{"mode":4,"attributes":{"POSITION":24,"NORMAL":25,"TEXCOORD_0":26},"indices":27,"material":6}]}]}