{"asset":{"version":"2.0","generator":"Blockbench 5.0.4 glTF exporter"},"scenes":[{"nodes":[0,1,2,3,4,5,6,7,8],"name":"blockbench_export"}],"scene":0,"nodes":[{"translation":[0.09375,0,0.125],"name":"cuboid","mesh":0},{"translation":[-0.09375,0,0.125],"name":"cuboid","mesh":1},{"translation":[-0.09375,0,-0.125],"name":"cuboid","mesh":2},{"translation":[0,0.25,-0.03125],"name":"cuboid","mesh":3},{"translation":[0,0.1625,0],"name":"cuboid","mesh":4},{"translation":[0.09375,0,-0.125],"name":"cuboid","mesh":5},{"translation":[0,0.0625,-0.03125],"name":"cuboid","mesh":6},{"rotation":[-0.043619387365336,0,0,0.9990482215818578],"translation":[-0.0625,0.1875,-0.1],"name":"cuboid","mesh":7},{"rotation":[-0.043619387365336,0,0,0.9990482215818578],"translation":[0.0625,0.1875,-0.1],"name":"cuboid","mesh":8}],"bufferViews":[{"buffer":0,"byteOffset":0,"byteLength":288,"target":34962,"byteStride":12},{"buffer":0,"byteOffset":288,"byteLength":288,"target":34962,"byteStride":12},{"buffer":0,"byteOffset":576,"byteLength":192,"target":34962,"byteStride":8},{"buffer":0,"byteOffset":768,"byteLength":72,"target":34963},{"buffer":0,"byteOffset":840,"byteLength":288,"target":34962,"byteStride":12},{"buffer":0,"byteOffset":1128,"byteLength":288,"target":34962,"byteStride":12},{"buffer":0,"byteOffset":1416,"byteLength":192,"target":34962,"byteStride":8},{"buffer":0,"byteOffset":1608,"byteLength":72,"target":34963},{"buffer":0,"byteOffset":1680,"byteLength":288,"target":34962,"byteStride":12},{"buffer":0,"byteOffset":1968,"byteLength":288,"target":34962,"byteStride":12},{"buffer":0,"byteOffset":2256,"byteLength":192,"target":34962,"byteStride":8},{"buffer":0,"byteOffset":2448,"byteLength":72,"target":34963},{"buffer":0,"byteOffset":2520,"byteLength":912,"target":34962,"byteStride":12},{"buffer":0,"byteOffset":3432,"byteLength":912,"target":34962,"byteStride":12},{"buffer":0,"byteOffset":4344,"byteLength":608,"target":34962,"byteStride":8},{"buffer":0,"byteOffset":4952,"byteLength":216,"target":34963},{"buffer":0,"byteOffset":5168,"byteLength":288,"target":34962,"byteStride":12},{"buffer":0,"byteOffset":5456,"byteLength":288,"target":34962,"byteStride":12},{"buffer":0,"byteOffset":5744,"byteLength":192,"target":34962,"byteStride":8},{"buffer":0,"byteOffset":5936,"byteLength":72,"target":34963},{"buffer":0,"byteOffset":6008,"byteLength":288,"target":34962,"byteStride":12},{"buffer":0,"byteOffset":6296,"byteLength":288,"target":34962,"byteStride":12},{"buffer":0,"byteOffset":6584,"byteLength":192,"target":34962,"byteStride":8},{"buffer":0,"byteOffset":6776,"byteLength":72,"target":34963},{"buffer":0,"byteOffset":6848,"byteLength":576,"target":34962,"byteStride":12},{"buffer":0,"byteOffset":7424,"byteLength":576,"target":34962,"byteStride":12},{"buffer":0,"byteOffset":8000,"byteLength":384,"target":34962,"byteStride":8},{"buffer":0,"byteOffset":8384,"byteLength":144,"target":34963},{"buffer":0,"byteOffset":8528,"byteLength":480,"target":34962,"byteStride":12},{"buffer":0,"byteOffset":9008,"byteLength":480,"target":34962,"byteStride":12},{"buffer":0,"byteOffset":9488,"byteLength":320,"target":34962,"byteStride":8},{"buffer":0,"byteOffset":9808,"byteLength":120,"target":34963},{"buffer":0,"byteOffset":9928,"byteLength":480,"target":34962,"byteStride":12},{"buffer":0,"byteOffset":10408,"byteLength":480,"target":34962,"byteStride":12},{"buffer":0,"byteOffset":10888,"byteLength":320,"target":34962,"byteStride":8},{"buffer":0,"byteOffset":11208,"byteLength":120,"target":34963}],"buffers":[{"byteLength":11328,"uri":"data:application/octet-stream;base64,"}],"accessors":[{"bufferView":0,"componentType":5126,"count":24,"max":[0.015625,0.1875,0.015625],"min":[-0.015625,0,-0.078125],"type":"VEC3"},{"bufferView":1,"componentType":5126,"count":24,"max":[1,1,0.9486833214759827],"min":[-1,-1,-0.9486833214759827],"type":"VEC3"},{"bufferView":2,"componentType":5126,"count":24,"max":[0.359375,0.046875],"min":[0.015625,0.015625],"type":"VEC2"},{"bufferView":3,"componentType":5123,"count":36,"max":[23],"min":[0],"type":"SCALAR"},{"bufferView":4,"componentType":5126,"count":24,"max":[0.015625,0.1875,0.015625],"min":[-0.015625,0,-0.078125],"type":"VEC3"},{"bufferView":5,"componentType":5126,"count":24,"max":[1,1,0.9486833214759827],"min":[-1,-1,-0.9486833214759827],"type":"VEC3"},{"bufferView":6,"componentType":5126,"count":24,"max":[0.3537622392177582,0.4375],"min":[0,0],"type":"VEC2"},{"bufferView":7,"componentType":5123,"count":36,"max":[23],"min":[0],"type":"SCALAR"},{"bufferView":8,"componentType":5126,"count":24,"max":[0.015625,0.1875,0.078125],"min":[-0.015625,0,-0.015625],"type":"VEC3"},{"bufferView":9,"componentType":5126,"count":24,"max":[1,1,0.9486833214759827],"min":[-1,-1,-0.9486833214759827],"type":"VEC3"},{"bufferView":10,"componentType":5126,"count":24,"max":[0.375,0.4375],"min":[0,0],"type":"VEC2"},{"bufferView":11,"componentType":5123,"count":36,"max":[23],"min":[0],"type":"SCALAR"},{"bufferView":12,"componentType":5126,"count":76,"max":[0.125,0.125,-0.05312500149011612],"min":[-0.125,0,-0.07187499850988388],"type":"VEC3"},{"bufferView":13,"componentType":5126,"count":76,"max":[1,1,1],"min":[-1,-1,-1],"type":"VEC3"},{"bufferView":14,"componentType":5126,"count":76,"max":[0.984375,0.234375],"min":[0.015625,0.140625],"type":"VEC2"},{"bufferView":15,"componentType":5123,"count":108,"max":[75],"min":[0],"type":"SCALAR"},{"bufferView":16,"componentType":5126,"count":24,"max":[0.125,0.04062499850988388,0.09375],"min":[-0.125,0.02187499962747097,-0.09375],"type":"VEC3"},{"bufferView":17,"componentType":5126,"count":24,"max":[1,1,1],"min":[-1,-1,-1],"type":"VEC3"},{"bufferView":18,"componentType":5126,"count":24,"max":[0.734375,0.046875],"min":[0.390625,0.015625],"type":"VEC2"},{"bufferView":19,"componentType":5123,"count":36,"max":[23],"min":[0],"type":"SCALAR"},{"bufferView":20,"componentType":5126,"count":24,"max":[0.015625,0.1875,0.078125],"min":[-0.015625,0,-0.015625],"type":"VEC3"},{"bufferView":21,"componentType":5126,"count":24,"max":[1,1,0.9486833214759827],"min":[-1,-1,-0.9486833214759827],"type":"VEC3"},{"bufferView":22,"componentType":5126,"count":24,"max":[0.984375,0.109375],"min":[0.015625,0.015625],"type":"VEC2"},{"bufferView":23,"componentType":5123,"count":36,"max":[23],"min":[0],"type":"SCALAR"},{"bufferView":24,"componentType":5126,"count":48,"max":[0.11874999850988388,0.046875,0.125],"min":[-0.11874999850988388,0.015625,-0.0625],"type":"VEC3"},{"bufferView":25,"componentType":5126,"count":48,"max":[1,1,1],"min":[-1,-1,-1],"type":"VEC3"},{"bufferView":26,"componentType":5126,"count":48,"max":[0.859375,0.109375],"min":[0.140625,0.078125],"type":"VEC2"},{"bufferView":27,"componentType":5123,"count":72,"max":[47],"min":[0],"type":"SCALAR"},{"bufferView":28,"componentType":5126,"count":40,"max":[0.015625,0.09375,0.0062500000931322575],"min":[-0.015625,0,-0.012500000186264515],"type":"VEC3"},{"bufferView":29,"componentType":5126,"count":40,"max":[1,1,0.9950371980667114],"min":[-1,-1,-0.9950371980667114],"type":"VEC3"},{"bufferView":30,"componentType":5126,"count":40,"max":[0.2906250059604645,0.34375],"min":[0,0],"type":"VEC2"},{"bufferView":31,"componentType":5123,"count":60,"max":[39],"min":[0],"type":"SCALAR"},{"bufferView":32,"componentType":5126,"count":40,"max":[0.015625,0.09375,0.0062500000931322575],"min":[-0.015625,0,-0.012500000186264515],"type":"VEC3"},{"bufferView":33,"componentType":5126,"count":40,"max":[1,1,0.9950371980667114],"min":[-1,-1,-0.9950371980667114],"type":"VEC3"},{"bufferView":34,"componentType":5126,"count":40,"max":[0.984375,0.171875],"min":[0.015625,0.078125],"type":"VEC2"},{"bufferView":35,"componentType":5123,"count":60,"max":[39],"min":[0],"type":"SCALAR"}],"materials":[{"pbrMetallicRoughness":{"metallicFactor":0,"roughnessFactor":1,"baseColorTexture":{"index":0}},"alphaMode":"MASK","alphaCutoff":0.05,"doubleSided":true},{"pbrMetallicRoughness":{"metallicFactor":0,"roughnessFactor":1,"baseColorTexture":{"index":1}},"alphaMode":"MASK","alphaCutoff":0.05,"doubleSided":true}],"textures":[{"sampler":0,"source":0,"name":"black"},{"sampler":1,"source":1,"name":"texture"}],"samplers":[{"magFilter":9728,"minFilter":9728,"wrapS":33071,"wrapT":33071},{"magFilter":9728,"minFilter":9728,"wrapS":33071,"wrapT":33071}],"images":[{"mimeType":"image/png","uri":"data:image/png;base64,"},{"mimeType":"image/png","uri":"data:image/png;base64,"}],"meshes":[{"primitives":[{"mode":4,"attributes":{"POSITION":0,"NORMAL":1,"TEXCOORD_0":2},"indices":3,"material":0}]},{"primitives":[{"mode":4,"attributes":{"POSITION":4,"NORMAL":5,"TEXCOORD_0":6},"indices":7,"material":0}]},{"primitives":[{"mode":4,"attributes":{"POSITION":8,"NORMAL":9,"TEXCOORD_0":10},"indices":11,"material":0}]},{"primitives":[{"mode":4,"attributes":{"POSITION":12,"NORMAL":13,"TEXCOORD_0":14},"indices":15,"material":1}]},{"primitives":[{"mode":4,"attributes":{"POSITION":16,"NORMAL":17,"TEXCOORD_0":18},"indices":19,"material":1}]},{"primitives":[{"mode":4,"attributes":{"POSITION":20,"NORMAL":21,"TEXCOORD_0":22},"indices":23,"material":0}]},{"primitives":[{"mode":4,"attributes":{"POSITION":24,"NORMAL":25,"TEXCOORD_0":26},"indices":27,"material":0}]},{"primitives":[{"mode":4,"attributes":{"POSITION":28,"NORMAL":29,"TEXCOORD_0":30},"indices":31,"material":0}]},{"primitives":[{"mode":4,"attributes":{"POSITION":32,"NORMAL":33,"TEXCOORD_0":34},"indices":35,"material":0}]}]}