{"asset":{"version":"2.0","generator":"Blockbench 5.0.4 glTF exporter"},"scenes":[{"nodes":[0,1,2,3,4,5,6,7],"name":"blockbench_export"}],"scene":0,"nodes":[{"name":"cuboid","mesh":0},{"translation":[0.1875,0.125,0],"name":"cuboid","mesh":1},{"translation":[0.125,0.04375,0],"name":"cuboid","mesh":2},{"translation":[0.06875,0.125,0],"name":"cuboid","mesh":3},{"translation":[0.00625,0.125,0],"name":"cuboid","mesh":4},{"rotation":[0,0,-0.06540312923014306,0.9978589232386035],"translation":[-0.06875,0.125,0],"name":"cuboid","mesh":5},{"translation":[-0.125,0.28125,0],"name":"cylinder","mesh":6},{"rotation":[0,0.1521233861899167,0,0.9883615104677607],"translation":[0.0625,0.31875,0],"name":"cuboid","mesh":7}],"bufferViews":[{"buffer":0,"byteOffset":0,"byteLength":11424,"target":34962,"byteStride":12},{"buffer":0,"byteOffset":11424,"byteLength":11424,"target":34962,"byteStride":12},{"buffer":0,"byteOffset":22848,"byteLength":7616,"target":34962,"byteStride":8},{"buffer":0,"byteOffset":30464,"byteLength":2856,"target":34963},{"buffer":0,"byteOffset":33320,"byteLength":288,"target":34962,"byteStride":12},{"buffer":0,"byteOffset":33608,"byteLength":288,"target":34962,"byteStride":12},{"buffer":0,"byteOffset":33896,"byteLength":192,"target":34962,"byteStride":8},{"buffer":0,"byteOffset":34088,"byteLength":72,"target":34963},{"buffer":0,"byteOffset":34160,"byteLength":288,"target":34962,"byteStride":12},{"buffer":0,"byteOffset":34448,"byteLength":288,"target":34962,"byteStride":12},{"buffer":0,"byteOffset":34736,"byteLength":192,"target":34962,"byteStride":8},{"buffer":0,"byteOffset":34928,"byteLength":72,"target":34963},{"buffer":0,"byteOffset":35000,"byteLength":288,"target":34962,"byteStride":12},{"buffer":0,"byteOffset":35288,"byteLength":288,"target":34962,"byteStride":12},{"buffer":0,"byteOffset":35576,"byteLength":192,"target":34962,"byteStride":8},{"buffer":0,"byteOffset":35768,"byteLength":72,"target":34963},{"buffer":0,"byteOffset":35840,"byteLength":288,"target":34962,"byteStride":12},{"buffer":0,"byteOffset":36128,"byteLength":288,"target":34962,"byteStride":12},{"buffer":0,"byteOffset":36416,"byteLength":192,"target":34962,"byteStride":8},{"buffer":0,"byteOffset":36608,"byteLength":72,"target":34963},{"buffer":0,"byteOffset":36680,"byteLength":288,"target":34962,"byteStride":12},{"buffer":0,"byteOffset":36968,"byteLength":288,"target":34962,"byteStride":12},{"buffer":0,"byteOffset":37256,"byteLength":192,"target":34962,"byteStride":8},{"buffer":0,"byteOffset":37448,"byteLength":72,"target":34963},{"buffer":0,"byteOffset":37520,"byteLength":1440,"target":34962,"byteStride":12},{"buffer":0,"byteOffset":38960,"byteLength":1440,"target":34962,"byteStride":12},{"buffer":0,"byteOffset":40400,"byteLength":960,"target":34962,"byteStride":8},{"buffer":0,"byteOffset":41360,"byteLength":288,"target":34963},{"buffer":0,"byteOffset":41648,"byteLength":288,"target":34962,"byteStride":12},{"buffer":0,"byteOffset":41936,"byteLength":288,"target":34962,"byteStride":12},{"buffer":0,"byteOffset":42224,"byteLength":192,"target":34962,"byteStride":8},{"buffer":0,"byteOffset":42416,"byteLength":72,"target":34963}],"buffers":[{"byteLength":42488,"uri":"data:application/octet-stream;base64,"}],"accessors":[{"bufferView":0,"componentType":5126,"count":952,"max":[0.28125,0.75,0.21875],"min":[-0.28125,0,-0.15625],"type":"VEC3"},{"bufferView":1,"componentType":5126,"count":952,"max":[1,1,1],"min":[-1,-1,-1],"type":"VEC3"},{"bufferView":2,"componentType":5126,"count":952,"max":[0.609375,0.546875],"min":[0,0],"type":"VEC2"},{"bufferView":3,"componentType":5123,"count":1428,"max":[951],"min":[0],"type":"SCALAR"},{"bufferView":4,"componentType":5126,"count":24,"max":[0.02500000037252903,0.125,0.09375],"min":[-0.02500000037252903,-0.0625,-0.09375],"type":"VEC3"},{"bufferView":5,"componentType":5126,"count":24,"max":[1,1,1],"min":[-1,-1,-1],"type":"VEC3"},{"bufferView":6,"componentType":5126,"count":24,"max":[0.0625,0.0625],"min":[0,0],"type":"VEC2"},{"bufferView":7,"componentType":5123,"count":36,"max":[23],"min":[0],"type":"SCALAR"},{"bufferView":8,"componentType":5126,"count":24,"max":[0.02500000037252903,0.17812499403953552,0.09375],"min":[-0.02500000037252903,0.00937500037252903,-0.09375],"type":"VEC3"},{"bufferView":9,"componentType":5126,"count":24,"max":[1,1,1],"min":[-1,-1,-1],"type":"VEC3"},{"bufferView":10,"componentType":5126,"count":24,"max":[0.359375,0.046875],"min":[0.015625,0.015625],"type":"VEC2"},{"bufferView":11,"componentType":5123,"count":36,"max":[23],"min":[0],"type":"SCALAR"},{"bufferView":12,"componentType":5126,"count":24,"max":[0.02187499962747097,0.125,0.09375],"min":[-0.02187499962747097,-0.0625,-0.09375],"type":"VEC3"},{"bufferView":13,"componentType":5126,"count":24,"max":[1,1,1],"min":[-1,-1,-1],"type":"VEC3"},{"bufferView":14,"componentType":5126,"count":24,"max":[0.0625,0.0625],"min":[0,0],"type":"VEC2"},{"bufferView":15,"componentType":5123,"count":36,"max":[23],"min":[0],"type":"SCALAR"},{"bufferView":16,"componentType":5126,"count":24,"max":[0.03125,0.125,0.09375],"min":[-0.03125,-0.0625,-0.09375],"type":"VEC3"},{"bufferView":17,"componentType":5126,"count":24,"max":[0.9994449019432068,1,1],"min":[-0.9994449019432068,-1,-1],"type":"VEC3"},{"bufferView":18,"componentType":5126,"count":24,"max":[0.0625,0.0625],"min":[0,0],"type":"VEC2"},{"bufferView":19,"componentType":5123,"count":36,"max":[23],"min":[0],"type":"SCALAR"},{"bufferView":20,"componentType":5126,"count":24,"max":[0.02500000037252903,0.125,0.09375],"min":[-0.02500000037252903,-0.0625,-0.09375],"type":"VEC3"},{"bufferView":21,"componentType":5126,"count":24,"max":[1,1,1],"min":[-1,-1,-1],"type":"VEC3"},{"bufferView":22,"componentType":5126,"count":24,"max":[0.0625,0.0625],"min":[0,0],"type":"VEC2"},{"bufferView":23,"componentType":5123,"count":36,"max":[23],"min":[0],"type":"SCALAR"},{"bufferView":24,"componentType":5126,"count":120,"max":[0.03125,0.15625,0.03125],"min":[-0.03125,0.03125,-0.03125],"type":"VEC3"},{"bufferView":25,"componentType":5126,"count":120,"max":[1,1,1],"min":[-1,-1,-1],"type":"VEC3"},{"bufferView":26,"componentType":5126,"count":120,"max":[0.032352790236473083,0.1875],"min":[0,0],"type":"VEC2"},{"bufferView":27,"componentType":5123,"count":144,"max":[119],"min":[0],"type":"SCALAR"},{"bufferView":28,"componentType":5126,"count":24,"max":[0.0625,0.01875000074505806,0.0625],"min":[-0.0625,-0.0062500000931322575,-0.0625],"type":"VEC3"},{"bufferView":29,"componentType":5126,"count":24,"max":[1,1,1],"min":[-1,-1,-1],"type":"VEC3"},{"bufferView":30,"componentType":5126,"count":24,"max":[0.625,0.875],"min":[0,0],"type":"VEC2"},{"bufferView":31,"componentType":5123,"count":36,"max":[23],"min":[0],"type":"SCALAR"}],"materials":[{"pbrMetallicRoughness":{"metallicFactor":0,"roughnessFactor":1,"baseColorTexture":{"index":0}},"alphaMode":"MASK","alphaCutoff":0.05,"doubleSided":true},{"pbrMetallicRoughness":{"metallicFactor":0,"roughnessFactor":1,"baseColorTexture":{"index":1}},"alphaMode":"MASK","alphaCutoff":0.05,"doubleSided":true},{"pbrMetallicRoughness":{"metallicFactor":0,"roughnessFactor":1,"baseColorTexture":{"index":2}},"alphaMode":"MASK","alphaCutoff":0.05,"doubleSided":true},{"pbrMetallicRoughness":{"metallicFactor":0,"roughnessFactor":1,"baseColorTexture":{"index":3}},"alphaMode":"MASK","alphaCutoff":0.05,"doubleSided":true},{"pbrMetallicRoughness":{"metallicFactor":0,"roughnessFactor":1,"baseColorTexture":{"index":4}},"alphaMode":"MASK","alphaCutoff":0.05,"doubleSided":true}],"textures":[{"sampler":0,"source":0,"name":"shelf.png"},{"sampler":1,"source":1,"name":"texture"},{"sampler":2,"source":2,"name":"red"},{"sampler":3,"source":3,"name":"blue"},{"sampler":4,"source":4,"name":"game"}],"samplers":[{"magFilter":9728,"minFilter":9728,"wrapS":33071,"wrapT":33071},{"magFilter":9728,"minFilter":9728,"wrapS":33071,"wrapT":33071},{"magFilter":9728,"minFilter":9728,"wrapS":33071,"wrapT":33071},{"magFilter":9728,"minFilter":9728,"wrapS":33071,"wrapT":33071},{"magFilter":9728,"minFilter":9728,"wrapS":33071,"wrapT":33071}],"images":[{"mimeType":"image/png","uri":"data:image/png;base64,"},{"mimeType":"image/png","uri":"data:image/png;base64,"},{"mimeType":"image/png","uri":"data:image/png;base64,"},{"mimeType":"image/png","uri":"data:image/png;base64,"},{"mimeType":"image/png","uri":"data:image/png;base64,"}],"meshes":[{"primitives":[{"mode":4,"attributes":{"POSITION":0,"NORMAL":1,"TEXCOORD_0":2},"indices":3,"material":0}]},{"primitives":[{"mode":4,"attributes":{"POSITION":4,"NORMAL":5,"TEXCOORD_0":6},"indices":7,"material":1}]},{"primitives":[{"mode":4,"attributes":{"POSITION":8,"NORMAL":9,"TEXCOORD_0":10},"indices":11,"material":2}]},{"primitives":[{"mode":4,"attributes":{"POSITION":12,"NORMAL":13,"TEXCOORD_0":14},"indices":15,"material":1}]},{"primitives":[{"mode":4,"attributes":{"POSITION":16,"NORMAL":17,"TEXCOORD_0":18},"indices":19,"material":3}]},{"primitives":[{"mode":4,"attributes":{"POSITION":20,"NORMAL":21,"TEXCOORD_0":22},"indices":23,"material":3}]},{"primitives":[{"mode":4,"attributes":{"POSITION":24,"NORMAL":25,"TEXCOORD_0":26},"indices":27,"material":1}]},{"primitives":[{"mode":4,"attributes":{"POSITION":28,"NORMAL":29,"TEXCOORD_0":30},"indices":31,"material":4}]}]}